<mxfile host="app.diagrams.net" modified="2024-05-20T04:06:12.023Z" agent="Mozilla/5.0 (Windows NT 10.0; Win64; x64) AppleWebKit/537.36 (KHTML, like Gecko) Chrome/125.0.0.0 Safari/537.36" etag="Ksnx2tGtoGYtgtaPEGXq" version="24.4.2" type="github">
  <diagram name="第 1 页" id="zRgw-F2Loey4QgDExblL">
    <mxGraphModel dx="1434" dy="841" grid="1" gridSize="10" guides="1" tooltips="1" connect="1" arrows="1" fold="1" page="1" pageScale="1" pageWidth="827" pageHeight="1169" math="0" shadow="0">
      <root>
        <mxCell id="0" />
        <mxCell id="1" parent="0" />
        <mxCell id="DkeXdmltZZ25ZQ4XzEC7-2" value="studentExcelImport" style="rounded=1;whiteSpace=wrap;html=1;" vertex="1" parent="1">
          <mxGeometry x="380" y="180" width="190" height="60" as="geometry" />
        </mxCell>
        <mxCell id="DkeXdmltZZ25ZQ4XzEC7-3" value="上传OSS生成文件PATH" style="rounded=1;whiteSpace=wrap;html=1;" vertex="1" parent="1">
          <mxGeometry x="380" y="320" width="190" height="60" as="geometry" />
        </mxCell>
        <mxCell id="DkeXdmltZZ25ZQ4XzEC7-4" value="根据险种调产品工厂获取Excel模板" style="rounded=1;whiteSpace=wrap;html=1;" vertex="1" parent="1">
          <mxGeometry x="380" y="440" width="190" height="60" as="geometry" />
        </mxCell>
        <mxCell id="DkeXdmltZZ25ZQ4XzEC7-5" value="根据险种调产品工厂获取Excel模板" style="rounded=1;whiteSpace=wrap;html=1;" vertex="1" parent="1">
          <mxGeometry x="380" y="550" width="190" height="60" as="geometry" />
        </mxCell>
        <mxCell id="DkeXdmltZZ25ZQ4XzEC7-6" value="获取保单模型" style="rounded=1;whiteSpace=wrap;html=1;" vertex="1" parent="1">
          <mxGeometry x="380" y="650" width="190" height="60" as="geometry" />
        </mxCell>
        <mxCell id="DkeXdmltZZ25ZQ4XzEC7-7" value="oss" style="ellipse;shape=cloud;whiteSpace=wrap;html=1;" vertex="1" parent="1">
          <mxGeometry x="70" y="240" width="120" height="80" as="geometry" />
        </mxCell>
        <mxCell id="DkeXdmltZZ25ZQ4XzEC7-8" value="产品工厂" style="ellipse;shape=cloud;whiteSpace=wrap;html=1;" vertex="1" parent="1">
          <mxGeometry x="70" y="480" width="120" height="80" as="geometry" />
        </mxCell>
        <mxCell id="DkeXdmltZZ25ZQ4XzEC7-20" value="" style="edgeStyle=orthogonalEdgeStyle;rounded=0;orthogonalLoop=1;jettySize=auto;html=1;" edge="1" parent="1" source="DkeXdmltZZ25ZQ4XzEC7-9" target="DkeXdmltZZ25ZQ4XzEC7-10">
          <mxGeometry relative="1" as="geometry" />
        </mxCell>
        <mxCell id="DkeXdmltZZ25ZQ4XzEC7-9" value="&lt;div&gt;日志handler&lt;/div&gt;统一处理日志表（Insurancebatch）" style="rounded=1;whiteSpace=wrap;html=1;" vertex="1" parent="1">
          <mxGeometry x="380" y="770" width="190" height="60" as="geometry" />
        </mxCell>
        <mxCell id="DkeXdmltZZ25ZQ4XzEC7-12" value="" style="edgeStyle=orthogonalEdgeStyle;rounded=0;orthogonalLoop=1;jettySize=auto;html=1;" edge="1" parent="1" source="DkeXdmltZZ25ZQ4XzEC7-10" target="DkeXdmltZZ25ZQ4XzEC7-11">
          <mxGeometry relative="1" as="geometry" />
        </mxCell>
        <mxCell id="DkeXdmltZZ25ZQ4XzEC7-15" value="" style="edgeStyle=orthogonalEdgeStyle;rounded=0;orthogonalLoop=1;jettySize=auto;html=1;" edge="1" parent="1" source="DkeXdmltZZ25ZQ4XzEC7-10" target="DkeXdmltZZ25ZQ4XzEC7-14">
          <mxGeometry relative="1" as="geometry" />
        </mxCell>
        <mxCell id="DkeXdmltZZ25ZQ4XzEC7-10" value="是否有批次号" style="rhombus;whiteSpace=wrap;html=1;" vertex="1" parent="1">
          <mxGeometry x="685" y="760" width="80" height="80" as="geometry" />
        </mxCell>
        <mxCell id="DkeXdmltZZ25ZQ4XzEC7-11" value="删除批次" style="rounded=1;whiteSpace=wrap;html=1;" vertex="1" parent="1">
          <mxGeometry x="855" y="770" width="190" height="60" as="geometry" />
        </mxCell>
        <mxCell id="DkeXdmltZZ25ZQ4XzEC7-17" value="" style="edgeStyle=orthogonalEdgeStyle;rounded=0;orthogonalLoop=1;jettySize=auto;html=1;" edge="1" parent="1" source="DkeXdmltZZ25ZQ4XzEC7-14" target="DkeXdmltZZ25ZQ4XzEC7-16">
          <mxGeometry relative="1" as="geometry" />
        </mxCell>
        <mxCell id="DkeXdmltZZ25ZQ4XzEC7-14" value="查出批次所有数据，但只用了条数&lt;div&gt;构建（ImportFileDTO）&lt;/div&gt;" style="rounded=1;whiteSpace=wrap;html=1;" vertex="1" parent="1">
          <mxGeometry x="630" y="900" width="190" height="60" as="geometry" />
        </mxCell>
        <mxCell id="DkeXdmltZZ25ZQ4XzEC7-23" value="" style="edgeStyle=orthogonalEdgeStyle;rounded=0;orthogonalLoop=1;jettySize=auto;html=1;" edge="1" parent="1" source="DkeXdmltZZ25ZQ4XzEC7-16" target="DkeXdmltZZ25ZQ4XzEC7-18">
          <mxGeometry relative="1" as="geometry" />
        </mxCell>
        <mxCell id="DkeXdmltZZ25ZQ4XzEC7-16" value="&lt;pre style=&quot;font-family: &amp;quot;JetBrains Mono&amp;quot;, monospace; font-size: 9.8pt;&quot;&gt;&lt;span style=&quot;background-color: rgb(255, 255, 255);&quot;&gt;写入Insurancebatch&lt;/span&gt;&lt;span style=&quot;color: rgb(169, 183, 198); background-color: rgb(43, 43, 43);&quot;&gt;&lt;br&gt;&lt;/span&gt;&lt;/pre&gt;" style="rounded=1;whiteSpace=wrap;html=1;" vertex="1" parent="1">
          <mxGeometry x="630" y="1060" width="190" height="60" as="geometry" />
        </mxCell>
        <mxCell id="DkeXdmltZZ25ZQ4XzEC7-25" value="" style="edgeStyle=orthogonalEdgeStyle;rounded=0;orthogonalLoop=1;jettySize=auto;html=1;" edge="1" parent="1" source="DkeXdmltZZ25ZQ4XzEC7-18" target="DkeXdmltZZ25ZQ4XzEC7-24">
          <mxGeometry relative="1" as="geometry" />
        </mxCell>
        <mxCell id="DkeXdmltZZ25ZQ4XzEC7-18" value="&lt;pre style=&quot;font-family: &amp;quot;JetBrains Mono&amp;quot;, monospace; font-size: 9.8pt;&quot;&gt;&lt;span style=&quot;background-color: rgb(255, 255, 255);&quot;&gt;校验handler&lt;/span&gt;&lt;span style=&quot;color: rgb(169, 183, 198); background-color: rgb(43, 43, 43);&quot;&gt;&lt;br&gt;&lt;/span&gt;&lt;/pre&gt;&lt;pre style=&quot;font-family: &amp;quot;JetBrains Mono&amp;quot;, monospace; font-size: 9.8pt;&quot;&gt;&lt;span style=&quot;background-color: rgb(255, 255, 255);&quot;&gt;初始化生成清单序列号逻辑&lt;/span&gt;&lt;/pre&gt;" style="rounded=1;whiteSpace=wrap;html=1;" vertex="1" parent="1">
          <mxGeometry x="360" y="1060" width="190" height="60" as="geometry" />
        </mxCell>
        <mxCell id="DkeXdmltZZ25ZQ4XzEC7-27" value="" style="edgeStyle=orthogonalEdgeStyle;rounded=0;orthogonalLoop=1;jettySize=auto;html=1;" edge="1" parent="1" source="DkeXdmltZZ25ZQ4XzEC7-24" target="DkeXdmltZZ25ZQ4XzEC7-26">
          <mxGeometry relative="1" as="geometry" />
        </mxCell>
        <mxCell id="DkeXdmltZZ25ZQ4XzEC7-24" value="&lt;span style=&quot;background-color: rgb(255, 255, 255);&quot;&gt;调用EsayExcel解析文件&lt;/span&gt;" style="rounded=1;whiteSpace=wrap;html=1;" vertex="1" parent="1">
          <mxGeometry x="360" y="1200" width="190" height="60" as="geometry" />
        </mxCell>
        <mxCell id="DkeXdmltZZ25ZQ4XzEC7-29" value="" style="edgeStyle=orthogonalEdgeStyle;rounded=0;orthogonalLoop=1;jettySize=auto;html=1;" edge="1" parent="1" source="DkeXdmltZZ25ZQ4XzEC7-26" target="DkeXdmltZZ25ZQ4XzEC7-28">
          <mxGeometry relative="1" as="geometry" />
        </mxCell>
        <mxCell id="DkeXdmltZZ25ZQ4XzEC7-26" value="BatchInsureExcelListener&lt;div&gt;产品工厂驱动模型保存&lt;br&gt;&lt;/div&gt;" style="rounded=1;whiteSpace=wrap;html=1;" vertex="1" parent="1">
          <mxGeometry x="360" y="1320" width="190" height="60" as="geometry" />
        </mxCell>
        <mxCell id="DkeXdmltZZ25ZQ4XzEC7-31" value="" style="edgeStyle=orthogonalEdgeStyle;rounded=0;orthogonalLoop=1;jettySize=auto;html=1;" edge="1" parent="1" source="DkeXdmltZZ25ZQ4XzEC7-28" target="DkeXdmltZZ25ZQ4XzEC7-30">
          <mxGeometry relative="1" as="geometry" />
        </mxCell>
        <mxCell id="DkeXdmltZZ25ZQ4XzEC7-28" value="前置拦截&lt;div&gt;校验、写入Insurancebatchetail&lt;/div&gt;" style="rounded=1;whiteSpace=wrap;html=1;" vertex="1" parent="1">
          <mxGeometry x="650" y="1320" width="190" height="60" as="geometry" />
        </mxCell>
        <mxCell id="DkeXdmltZZ25ZQ4XzEC7-33" value="" style="edgeStyle=orthogonalEdgeStyle;rounded=0;orthogonalLoop=1;jettySize=auto;html=1;" edge="1" parent="1" source="DkeXdmltZZ25ZQ4XzEC7-30" target="DkeXdmltZZ25ZQ4XzEC7-32">
          <mxGeometry relative="1" as="geometry" />
        </mxCell>
        <mxCell id="DkeXdmltZZ25ZQ4XzEC7-30" value="后置拦截&lt;div&gt;给prpTnameTemp对象赋值，保单号、序列号、nameno、flag、条数等信息&lt;/div&gt;" style="rounded=1;whiteSpace=wrap;html=1;" vertex="1" parent="1">
          <mxGeometry x="650" y="1460" width="190" height="60" as="geometry" />
        </mxCell>
        <mxCell id="DkeXdmltZZ25ZQ4XzEC7-32" value="&lt;div&gt;&lt;span style=&quot;background-color: rgb(43, 43, 43); color: rgb(169, 183, 198); font-family: &amp;quot;JetBrains Mono&amp;quot;, monospace; font-size: 9.8pt;&quot;&gt;ListenerInstance&lt;/span&gt;&lt;/div&gt;&lt;div&gt;开始导入逻辑&lt;/div&gt;" style="rounded=1;whiteSpace=wrap;html=1;" vertex="1" parent="1">
          <mxGeometry x="650" y="1600" width="190" height="60" as="geometry" />
        </mxCell>
      </root>
    </mxGraphModel>
  </diagram>
</mxfile>
